<?xml version="1.0" encoding="UTF-8" standalone="no"?>
<svg
   xmlns:dc="http://purl.org/dc/elements/1.1/"
   xmlns:cc="http://creativecommons.org/ns#"
   xmlns:rdf="http://www.w3.org/1999/02/22-rdf-syntax-ns#"
   xmlns:svg="http://www.w3.org/2000/svg"
   xmlns="http://www.w3.org/2000/svg"
   viewBox="0 0 1531.9067 294.73334"
   height="294.73334"
   width="1531.9067"
   xml:space="preserve"
   id="svg2"
   version="1.1"><metadata
     id="metadata8"><rdf:RDF><cc:Work
         rdf:about=""><dc:format>image/svg+xml</dc:format><dc:type
           rdf:resource="http://purl.org/dc/dcmitype/StillImage" /></cc:Work></rdf:RDF></metadata><defs
     id="defs6" /><g
     transform="matrix(1.3333333,0,0,-1.3333333,0,294.73333)"
     id="g10"><g
       transform="scale(0.1)"
       id="g12"><path
         id="path14"
         style="fill:#100f0d;fill-opacity:1;fill-rule:nonzero;stroke:none"
         d="m 11314.3,1764.37 -345.6,198.31 -350.6,201.11 c -232.3,133.3 -521.9,-34.42 -521.9,-302.28 v -45.14 c 0,-24.7 13.2,-47.51 34.6,-59.8 l 162.6,-93.3 c 45.2,-25.89 101.4,6.68 101.4,58.69 v 106.92 c 0,52.93 57.2,86.07 103.2,59.73 l 320.3,-183.81 319.4,-183.25 c 46.1,-26.48 46.1,-93.02 0,-119.48 L 10818.3,1218.81 10498,1035 c -46,-26.34 -103.2,6.8 -103.2,59.74 v 53.11 c 0,267.86 -289.6,435.58 -521.93,302.28 l -350.52,-201.12 -345.63,-198.3 c -233.42,-133.929 -233.42,-470.628 0,-604.562 L 9522.35,247.852 9872.87,46.7383 c 232.33,-133.3086 521.93,34.4219 521.93,302.2737 v 45.25 c 0,24.699 -13.2,47.508 -34.6,59.808 l -162.6,93.301 c -45.2,25.891 -101.4,-6.68 -101.4,-58.699 V 381.66 c 0,-52.941 -57.2,-86.09 -103.15,-59.738 l -320.37,183.808 -319.4,183.25 c -46.12,26.469 -46.12,93.008 0,119.481 l 319.4,183.258 320.37,183.811 c 45.95,26.34 103.15,-6.8 103.15,-59.74 v -53.11 c 0,-267.86 289.6,-435.578 521.9,-302.282 l 350.6,201.114 345.6,198.308 c 233.4,133.92 233.4,470.63 0,604.55" /><path
         id="path16"
         style="fill:#100f0d;fill-opacity:1;fill-rule:nonzero;stroke:none"
         d="M 9044.6,1698.18 8233.91,25.0391 H 7897.54 L 8200.42,650.262 7724.21,1698.18 h 345.04 l 305.95,-701.75 334.26,701.75 h 335.14" /><path
         id="path18"
         style="fill:#100f0d;fill-opacity:1;fill-rule:nonzero;stroke:none"
         d="M 948.102,510.059 V 664.512 C 860.168,557.582 729.473,491.039 572.668,491.039 247.105,491.039 0,752.43 0,1104.12 c 0,349.29 256.621,615.44 579.781,615.44 152.074,0 280.387,-66.56 368.321,-171.1 v 149.71 H 1240.37 V 510.059 Z m -2.383,594.061 c 0,199.58 -144.942,339.79 -323.16,339.79 -178.219,0 -323.164,-142.57 -323.164,-339.79 0,-194.858 144.945,-339.819 323.164,-339.819 178.218,0 323.16,140.199 323.16,339.819" /><path
         id="path20"
         style="fill:#100f0d;fill-opacity:1;fill-rule:nonzero;stroke:none"
         d="m 2660.07,773.832 c -102.19,0 -130.68,38 -130.68,137.809 v 527.519 h 187.7 v 259.01 h -187.7 v 289.88 h -299.42 v -289.88 h -385.7 v 118.23 c 0,99.8 38.01,137.85 142.57,137.85 h 65.76 v 230.49 h -144.18 c -247.12,0 -363.57,-80.81 -363.57,-327.93 v -158.64 h -166.34 v -259.01 h 166.34 V 510.059 h 299.42 v 929.101 h 385.7 V 856.988 c 0,-242.386 92.67,-346.929 335.04,-346.929 h 154.46 v 263.773 h -59.4" /><path
         id="path22"
         style="fill:#100f0d;fill-opacity:1;fill-rule:nonzero;stroke:none"
         d="m 3137.68,1025.68 c 21.39,-175.821 147.32,-275.629 306.55,-275.629 125.92,0 223.35,59.418 280.38,154.461 h 306.53 c -71.27,-251.903 -297.03,-413.473 -594.05,-413.473 -358.8,0 -610.69,251.883 -610.69,610.681 0,358.82 266.15,617.85 617.83,617.85 354.05,0 610.69,-261.39 610.69,-617.85 0,-26.13 -2.4,-52.28 -7.15,-76.04 z m 596.43,185.37 c -21.38,154.44 -147.33,247.13 -294.65,247.13 -147.31,0 -268.51,-90.3 -299.4,-247.13 h 594.05" /><path
         id="path24"
         style="fill:#100f0d;fill-opacity:1;fill-rule:nonzero;stroke:none"
         d="M 5018.06,25.0391 V 1698.16 h 292.28 v -154.44 c 87.92,109.3 218.61,175.84 375.44,175.84 320.79,0 572.67,-263.77 572.67,-613.08 0,-349.289 -256.63,-615.449 -579.79,-615.449 -149.71,0 -273.27,59.418 -358.82,159.207 V 25.0391 Z M 5959.04,1104.11 c 0,192.48 -144.96,339.81 -323.15,339.81 -178.23,0 -323.18,-142.59 -323.18,-339.81 0,-194.848 144.95,-339.809 323.18,-339.809 178.19,0 323.15,147.328 323.15,339.809" /><path
         id="path26"
         style="fill:#100f0d;fill-opacity:1;fill-rule:nonzero;stroke:none"
         d="m 7314,510.059 v 154.453 c -87.92,-106.93 -218.62,-173.473 -375.44,-173.473 -325.55,0 -572.67,261.391 -572.67,613.081 0,349.29 256.62,615.44 579.78,615.44 152.08,0 280.41,-66.56 368.33,-171.1 v 149.71 h 292.27 V 510.059 Z m -2.4,594.061 c 0,199.58 -144.92,339.79 -323.15,339.79 -178.2,0 -323.16,-142.57 -323.16,-339.79 0,-194.858 144.96,-339.819 323.16,-339.819 178.23,0 323.15,140.199 323.15,339.819" /><path
         id="path28"
         style="fill:#100f0d;fill-opacity:1;fill-rule:nonzero;stroke:none"
         d="m 4491.35,1581.73 c 0,0 74.36,137.83 256.63,137.83 77.92,0 128.34,-26.83 128.34,-26.83 v -303.05 c 0,0 -109.97,67.93 -210.93,54.22 -100.95,-13.68 -164.85,-106.38 -164.54,-230.47 V 510.07 h -301.76 v 1188.11 h 292.26 v -116.45" /></g></g></svg>