<svg width="52" height="33" viewBox="0 0 52 33" fill="none" xmlns="http://www.w3.org/2000/svg">
<rect x="0.5" y="0.5" width="51" height="32" rx="1.5" fill="white"/>
<g clip-path="url(#clip0_1211_34120)">
<path fill-rule="evenodd" clip-rule="evenodd" d="M39.1951 23.2048C35.6259 25.8389 30.4518 27.2395 25.9958 27.2395C19.7509 27.2395 14.1275 24.9309 9.87237 21.0887C9.53834 20.7869 9.83591 20.3749 10.2378 20.6089C14.8286 23.2803 20.5063 24.8894 26.3705 24.8894C30.3263 24.8894 34.6746 24.0687 38.6762 22.3714C39.279 22.1146 39.7852 22.7682 39.1951 23.2048ZM40.6796 21.5092C41.1365 22.0942 40.1717 24.5028 39.7411 25.5786C39.6105 25.9042 39.8903 26.0356 40.1853 25.7889C42.0996 24.1874 42.5948 20.831 42.2031 20.3461C41.8139 19.8654 38.4668 19.4516 36.4236 20.8861C36.1091 21.1065 36.1634 21.4117 36.5118 21.3693C37.6623 21.232 40.2235 20.9242 40.6796 21.5092Z" fill="#FF9900"/>
<path fill-rule="evenodd" clip-rule="evenodd" d="M35.5123 17.7191L39.2273 8.26363C39.3053 8.07203 39.3451 7.93723 39.3451 7.85838C39.3451 7.72359 39.2663 7.65576 39.1086 7.65576H38.1633C37.9827 7.65576 37.8598 7.68459 37.7911 7.74054C37.7233 7.79734 37.6563 7.92112 37.5885 8.11272L35.3088 14.6636L32.9451 8.11272C32.8773 7.92112 32.8103 7.79734 32.7425 7.74054C32.6747 7.68459 32.5509 7.65576 32.3703 7.65576H31.3572C31.1995 7.65576 31.1207 7.72359 31.1207 7.85838C31.1207 7.93723 31.1597 8.07203 31.2385 8.26363L34.4975 16.3007L34.177 17.1621C33.9854 17.703 33.7717 18.0743 33.5352 18.2769C33.2987 18.4796 32.9663 18.5805 32.539 18.5805C32.3474 18.5805 32.1957 18.5686 32.0838 18.5465C31.971 18.5245 31.8862 18.5126 31.8303 18.5126C31.6616 18.5126 31.5768 18.6195 31.5768 18.8331V19.2723C31.5768 19.4299 31.6048 19.5452 31.6616 19.6182C31.7175 19.6911 31.8074 19.7453 31.932 19.7784C32.2126 19.8564 32.534 19.8971 32.8943 19.8971C33.5361 19.8971 34.0566 19.7284 34.4559 19.3901C34.8569 19.0535 35.2088 18.4957 35.5123 17.7191Z" fill="#232F3E"/>
<path fill-rule="evenodd" clip-rule="evenodd" d="M21.644 9.97954C21.4804 9.43356 21.2473 8.96897 20.9429 8.58661C20.6394 8.20426 20.2681 7.91092 19.8289 7.7083C19.3906 7.50567 18.9006 7.40479 18.3597 7.40479C17.8535 7.40479 17.3576 7.49974 16.8743 7.69134C16.3902 7.88294 15.9341 8.16441 15.506 8.53574L15.4221 7.99485C15.3881 7.77019 15.2584 7.65743 15.0329 7.65743H14.2902C14.0656 7.65743 13.9528 7.77019 13.9528 7.99485V19.3587C13.9528 19.5842 14.0656 19.6961 14.2902 19.6961H15.2864C15.5119 19.6961 15.6238 19.5834 15.6238 19.3587V15.408C16.3555 16.0718 17.2279 16.4041 18.241 16.4041C18.792 16.4041 19.2931 16.2939 19.7433 16.0752C20.1934 15.8556 20.5758 15.5487 20.8912 15.1545C21.2066 14.7611 21.4516 14.283 21.6254 13.7192C21.8 13.1562 21.8873 12.5255 21.8873 11.8277C21.889 11.1419 21.8068 10.5255 21.644 9.97954ZM17.8535 15.0528C17.0871 15.0528 16.3445 14.7832 15.6247 14.2423V9.5319C16.3334 9.0139 17.088 8.75532 17.8874 8.75532C19.4186 8.75532 20.1841 9.80829 20.1841 11.9125C20.1833 14.0066 19.4067 15.0528 17.8535 15.0528Z" fill="#232F3E"/>
<path fill-rule="evenodd" clip-rule="evenodd" d="M29.2581 8.0678C28.7511 7.62949 27.9635 7.40991 26.8944 7.40991C26.3654 7.40991 25.8364 7.45824 25.3074 7.55319C24.7775 7.64899 24.3332 7.77531 23.9729 7.933C23.8381 7.9898 23.7474 8.0483 23.7025 8.11019C23.6575 8.17208 23.6347 8.28229 23.6347 8.43914V8.8944C23.6347 9.09703 23.7076 9.19876 23.8542 9.19876C23.8992 9.19876 23.9475 9.19028 23.9984 9.17333C24.0492 9.15637 24.0916 9.14281 24.1247 9.13094C24.992 8.87236 25.8186 8.74265 26.607 8.74265C27.2819 8.74265 27.7549 8.86643 28.0254 9.11483C28.2958 9.36239 28.4306 9.78967 28.4306 10.3975V11.5115C27.643 11.3199 26.9334 11.225 26.3027 11.225C25.3124 11.225 24.5248 11.47 23.939 11.9592C23.354 12.4484 23.0607 13.1046 23.0607 13.9261C23.0607 14.6925 23.2972 15.302 23.7703 15.7582C24.2425 16.2143 24.8843 16.4415 25.6948 16.4415C26.1789 16.4415 26.6655 16.3457 27.1556 16.1549C27.6456 15.9642 28.0924 15.6929 28.4976 15.3444L28.5824 15.9014C28.6163 16.1151 28.7401 16.2219 28.9546 16.2219H29.6803C29.905 16.2219 30.0186 16.1091 30.0186 15.8845V10.111C30.0177 9.18774 29.7642 8.50696 29.2581 8.0678ZM28.4306 14.3161C28.0593 14.5975 27.671 14.8112 27.2658 14.9578C26.8605 15.1045 26.4722 15.1774 26.1009 15.1774C25.6617 15.1774 25.3243 15.0621 25.0878 14.8315C24.8512 14.6009 24.7334 14.272 24.7334 13.8438C24.7334 12.8646 25.3692 12.3746 26.6409 12.3746C26.9334 12.3746 27.2344 12.395 27.5438 12.4339C27.8533 12.4738 28.1492 12.5272 28.4306 12.5942V14.3161Z" fill="#232F3E"/>
</g>
<rect x="0.5" y="0.5" width="51" height="32" rx="1.5" stroke="#EAEAEA"/>
<defs>
<clipPath id="clip0_1211_34120">
<rect width="33.9161" height="22.6667" fill="white" transform="translate(9 6)"/>
</clipPath>
</defs>
</svg>
