<?xml version="1.0" encoding="UTF-8" standalone="no"?>
<svg
   xmlns:dc="http://purl.org/dc/elements/1.1/"
   xmlns:cc="http://creativecommons.org/ns#"
   xmlns:rdf="http://www.w3.org/1999/02/22-rdf-syntax-ns#"
   xmlns:svg="http://www.w3.org/2000/svg"
   xmlns="http://www.w3.org/2000/svg"
   viewBox="0 0 2158.6667 733.96002"
   height="733.96002"
   width="2158.6667"
   xml:space="preserve"
   id="svg2"
   version="1.1"><metadata
     id="metadata8"><rdf:RDF><cc:Work
         rdf:about=""><dc:format>image/svg+xml</dc:format><dc:type
           rdf:resource="http://purl.org/dc/dcmitype/StillImage" /></cc:Work></rdf:RDF></metadata><defs
     id="defs6" /><g
     transform="matrix(1.3333333,0,0,-1.3333333,0,733.96)"
     id="g10"><g
       transform="scale(0.1)"
       id="g12"><path
         id="path14"
         style="fill:#bce7d1;fill-opacity:1;fill-rule:nonzero;stroke:none"
         d="M 13437.7,0 H 2752.35 C 1232.27,0 0,1232.26 0,2752.35 v 0 C 0,4272.43 1232.27,5504.7 2752.35,5504.7 H 13437.7 c 1520,0 2752.3,-1232.27 2752.3,-2752.35 v 0 C 16190,1232.26 14957.7,0 13437.7,0" /><path
         id="path16"
         style="fill:#100f0d;fill-opacity:1;fill-rule:nonzero;stroke:none"
         d="m 11584,3342.91 -810.7,-1673.13 h -336.4 l 302.9,625.22 -476.2,1047.91 h 345 l 306,-701.74 334.2,701.74 h 335.2" /><path
         id="path18"
         style="fill:#100f0d;fill-opacity:1;fill-rule:nonzero;stroke:none"
         d="M 7557.43,1669.78 V 3342.9 h 292.29 v -154.44 c 87.92,109.3 218.61,175.84 375.44,175.84 320.79,0 572.66,-263.77 572.66,-613.08 0,-349.29 -256.62,-615.44 -579.78,-615.44 -149.71,0 -273.27,59.4 -358.83,159.2 v -625.2 z m 940.99,1079.08 c 0,192.46 -144.95,339.8 -323.16,339.8 -178.22,0 -323.18,-142.59 -323.18,-339.8 0,-194.86 144.96,-339.82 323.18,-339.82 178.21,0 323.16,147.33 323.16,339.82" /><path
         id="path20"
         style="fill:#100f0d;fill-opacity:1;fill-rule:nonzero;stroke:none"
         d="m 9853.37,2154.79 v 154.46 c -87.92,-106.94 -218.61,-173.47 -375.44,-173.47 -325.54,0 -572.67,261.39 -572.67,613.08 0,349.29 256.62,615.44 579.79,615.44 152.07,0 280.4,-66.55 368.32,-171.1 v 149.7 h 292.33 V 2154.79 Z m -2.38,594.07 c 0,199.58 -144.93,339.79 -323.17,339.79 -178.2,0 -323.16,-142.58 -323.16,-339.79 0,-194.85 144.96,-339.81 323.16,-339.81 178.24,0 323.17,140.19 323.17,339.81" /><path
         id="path22"
         style="fill:#100f0d;fill-opacity:1;fill-rule:nonzero;stroke:none"
         d="m 7030.73,3226.47 c 0,0 74.36,137.82 256.62,137.82 77.93,0 128.35,-26.82 128.35,-26.82 v -303.05 c 0,0 -109.97,67.92 -210.94,54.22 -100.94,-13.68 -164.84,-106.39 -164.53,-230.47 V 2154.8 h -301.76 v 1188.11 h 292.26 v -116.44" /><path
         id="path24"
         style="fill:#100f0d;fill-opacity:1;fill-rule:nonzero;stroke:none"
         d="m 13852.4,3409.92 -345.6,198.31 -350.6,201.11 c -232.3,133.3 -521.9,-34.42 -521.9,-302.28 v -45.14 c 0,-24.7 13.2,-47.51 34.7,-59.8 l 162.6,-93.31 c 45.1,-25.88 101.3,6.69 101.3,58.7 v 106.91 c 0,52.94 57.3,86.08 103.2,59.74 l 320.3,-183.81 319.4,-183.26 c 46.2,-26.47 46.2,-93.01 0,-119.47 l -319.4,-183.26 -320.3,-183.82 c -45.9,-26.33 -103.2,6.81 -103.2,59.75 v 53.11 c 0,267.86 -289.6,435.58 -521.9,302.28 l -350.5,-201.12 -345.6,-198.3 c -233.5,-133.93 -233.5,-470.64 0,-604.56 l 345.6,-198.3 350.5,-201.12 c 232.3,-133.3 521.9,34.43 521.9,302.28 v 45.25 c 0,24.7 -13.2,47.51 -34.6,59.81 l -162.6,93.3 c -45.1,25.89 -101.4,-6.68 -101.4,-58.7 V 2027.2 c 0,-52.93 -57.2,-86.08 -103.1,-59.73 l -320.4,183.81 -319.4,183.25 c -46.1,26.46 -46.1,93.01 0,119.48 l 319.4,183.25 320.4,183.82 c 45.9,26.34 103.1,-6.8 103.1,-59.74 v -53.11 c 0,-267.86 289.6,-435.59 521.9,-302.28 l 350.6,201.11 345.6,198.3 c 233.4,133.93 233.4,470.63 0,604.56" /><path
         id="path26"
         style="fill:#100f0d;fill-opacity:1;fill-rule:nonzero;stroke:none"
         d="m 3380.53,2597.52 c -64.1,-273.05 -299.16,-460.62 -603.07,-460.62 -351.38,0 -614.92,263.56 -614.92,612.56 0,349.01 268.29,614.93 619.68,614.93 296.78,0 529.46,-187.57 595.93,-455.85 h -308.64 c -54.62,106.84 -163.83,178.06 -284.92,178.06 -175.69,0 -322.89,-144.82 -322.89,-337.14 0,-192.3 147.2,-337.15 322.89,-337.15 125.83,0 235.05,71.24 287.29,185.21 h 308.65" /><path
         id="path28"
         style="fill:#100f0d;fill-opacity:1;fill-rule:nonzero;stroke:none"
         d="m 3519.79,2155.9 v 1675.55 h 299.15 V 2155.9 h -299.15" /><path
         id="path30"
         style="fill:#100f0d;fill-opacity:1;fill-rule:nonzero;stroke:none"
         d="m 4864.11,2856.3 c -21.38,154.32 -147.21,246.92 -294.41,246.92 -147.2,0 -268.29,-90.22 -299.15,-246.92 z m -595.95,-185.2 c 21.38,-175.67 147.21,-275.41 306.29,-275.41 125.83,0 223.17,59.37 280.15,154.34 h 306.28 c -71.23,-251.67 -296.77,-413.13 -593.56,-413.13 -358.51,0 -610.18,251.68 -610.18,610.19 0,358.5 265.92,617.3 617.31,617.3 353.76,0 610.18,-261.17 610.18,-617.3 0,-26.12 -2.38,-52.24 -7.13,-75.99 h -909.34" /><path
         id="path32"
         style="fill:#100f0d;fill-opacity:1;fill-rule:nonzero;stroke:none"
         d="m 6248.56,2749.46 c 0,199.43 -144.83,339.51 -322.9,339.51 -178.06,0 -322.89,-142.45 -322.89,-339.51 0,-194.69 144.83,-339.51 322.89,-339.51 178.07,0 322.9,140.08 322.9,339.51 z m 2.37,-593.56 v 154.33 C 6163.08,2203.4 6032.5,2136.9 5875.81,2136.9 c -325.28,0 -572.2,261.17 -572.2,612.56 0,349.01 256.42,614.93 579.32,614.93 151.95,0 280.15,-66.48 368,-170.95 v 149.58 h 292.03 V 2155.9 h -292.03" /></g></g></svg>