<?xml version="1.0" encoding="UTF-8" standalone="no"?>
<svg
   xmlns:dc="http://purl.org/dc/elements/1.1/"
   xmlns:cc="http://creativecommons.org/ns#"
   xmlns:rdf="http://www.w3.org/1999/02/22-rdf-syntax-ns#"
   xmlns:svg="http://www.w3.org/2000/svg"
   xmlns="http://www.w3.org/2000/svg"
   viewBox="0 0 1581.9867 294.73334"
   height="294.73334"
   width="1581.9867"
   xml:space="preserve"
   id="svg2"
   version="1.1"><metadata
     id="metadata8"><rdf:RDF><cc:Work
         rdf:about=""><dc:format>image/svg+xml</dc:format><dc:type
           rdf:resource="http://purl.org/dc/dcmitype/StillImage" /></cc:Work></rdf:RDF></metadata><defs
     id="defs6" /><g
     transform="matrix(1.3333333,0,0,-1.3333333,0,294.73333)"
     id="g10"><g
       transform="scale(0.1)"
       id="g12"><path
         id="path14"
         style="fill:#100f0d;fill-opacity:1;fill-rule:nonzero;stroke:none"
         d="M 9421.43,1697.36 8610.74,24.2383 H 8274.38 L 8577.25,649.449 8101.04,1697.36 h 345.05 l 305.94,-701.739 334.27,701.739 h 335.13" /><path
         id="path16"
         style="fill:#100f0d;fill-opacity:1;fill-rule:nonzero;stroke:none"
         d="M 5394.89,24.2383 V 1697.36 h 292.28 v -154.44 c 87.92,109.29 218.62,175.83 375.44,175.83 320.79,0 572.67,-263.77 572.67,-613.08 0,-349.291 -256.62,-615.44 -579.79,-615.44 -149.7,0 -273.27,59.411 -358.82,159.2 V 24.2383 Z M 6335.87,1103.31 c 0,192.46 -144.95,339.81 -323.15,339.81 -178.22,0 -323.18,-142.6 -323.18,-339.81 0,-194.861 144.96,-339.822 323.18,-339.822 178.2,0 323.15,147.344 323.15,339.822" /><path
         id="path18"
         style="fill:#100f0d;fill-opacity:1;fill-rule:nonzero;stroke:none"
         d="M 7690.83,509.25 V 663.699 C 7602.91,556.762 7472.21,490.23 7315.39,490.23 c -325.54,0 -572.67,261.391 -572.67,613.08 0,349.29 256.62,615.44 579.79,615.44 152.07,0 280.4,-66.55 368.32,-171.1 v 149.71 h 292.28 V 509.25 Z m -2.39,594.06 c 0,199.58 -144.92,339.79 -323.16,339.79 -178.2,0 -323.17,-142.58 -323.17,-339.79 0,-194.849 144.97,-339.81 323.17,-339.81 178.24,0 323.16,140.191 323.16,339.81" /><path
         id="path20"
         style="fill:#100f0d;fill-opacity:1;fill-rule:nonzero;stroke:none"
         d="m 4868.19,1580.92 c 0,0 74.36,137.83 256.62,137.83 77.93,0 128.34,-26.82 128.34,-26.82 v -303.05 c 0,0 -109.97,67.91 -210.93,54.21 -100.95,-13.68 -164.85,-106.38 -164.53,-230.47 V 509.25 h -301.77 v 1188.11 h 292.27 v -116.44" /><path
         id="path22"
         style="fill:#100f0d;fill-opacity:1;fill-rule:nonzero;stroke:none"
         d="m 11689.9,1764.37 -345.7,198.31 -350.5,201.11 c -232.3,133.3 -521.9,-34.42 -521.9,-302.28 v -45.14 c 0,-24.7 13.2,-47.51 34.6,-59.8 l 162.6,-93.3 c 45.1,-25.89 101.4,6.68 101.4,58.69 v 106.92 c 0,52.93 57.2,86.07 103.1,59.73 l 320.4,-183.81 319.4,-183.25 c 46.1,-26.48 46.1,-93.02 0,-119.48 L 11193.9,1218.81 10873.5,1035 c -45.9,-26.34 -103.1,6.8 -103.1,59.74 v 53.11 c 0,267.86 -289.6,435.58 -521.9,302.28 l -350.57,-201.12 -345.62,-198.3 c -233.43,-133.929 -233.43,-470.628 0,-604.562 L 9897.93,247.852 10248.5,46.7383 c 232.3,-133.3086 521.9,34.4219 521.9,302.2737 v 45.25 c 0,24.699 -13.2,47.508 -34.6,59.808 l -162.7,93.301 c -45.1,25.891 -101.3,-6.68 -101.3,-58.699 V 381.66 c 0,-52.941 -57.3,-86.09 -103.2,-59.738 l -320.3,183.808 -319.43,183.25 c -46.13,26.469 -46.13,93.008 0,119.481 l 319.43,183.258 320.3,183.811 c 45.9,26.34 103.2,-6.8 103.2,-59.74 v -53.11 c 0,-267.86 289.6,-435.578 521.9,-302.282 l 350.5,201.114 345.7,198.308 c 233.4,133.92 233.4,470.63 0,604.55" /><path
         id="path24"
         style="fill:#100f0d;fill-opacity:1;fill-rule:nonzero;stroke:none"
         d="M 1217.98,951.969 C 1153.88,678.922 918.828,491.352 614.922,491.352 263.535,491.352 0,754.91 0,1103.91 c 0,349.02 268.289,614.93 619.68,614.93 296.777,0 529.46,-187.56 595.93,-455.85 H 906.965 c -54.617,106.84 -163.824,178.06 -284.914,178.06 -175.699,0 -322.895,-144.82 -322.895,-337.14 0,-192.301 147.196,-337.148 322.895,-337.148 125.832,0 235.043,71.238 287.285,185.207 h 308.644" /><path
         id="path26"
         style="fill:#100f0d;fill-opacity:1;fill-rule:nonzero;stroke:none"
         d="M 1357.25,510.352 V 2185.91 H 1656.4 V 510.352 h -299.15" /><path
         id="path28"
         style="fill:#100f0d;fill-opacity:1;fill-rule:nonzero;stroke:none"
         d="m 2701.56,1210.75 c -21.37,154.32 -147.2,246.92 -294.41,246.92 -147.19,0 -268.28,-90.22 -299.15,-246.92 z m -595.94,-185.2 c 21.37,-175.671 147.21,-275.409 306.28,-275.409 125.84,0 223.18,59.371 280.16,154.339 h 306.28 c -71.23,-251.671 -296.78,-413.128 -593.56,-413.128 -358.51,0 -610.18,251.679 -610.18,610.188 0,358.51 265.91,617.3 617.3,617.3 353.76,0 610.19,-261.17 610.19,-617.3 0,-26.12 -2.38,-52.24 -7.13,-75.99 h -909.34" /><path
         id="path30"
         style="fill:#100f0d;fill-opacity:1;fill-rule:nonzero;stroke:none"
         d="m 4086.02,1103.91 c 0,199.44 -144.83,339.52 -322.9,339.52 -178.07,0 -322.89,-142.46 -322.89,-339.52 0,-194.68 144.82,-339.512 322.89,-339.512 178.07,0 322.9,140.082 322.9,339.512 z m 2.37,-593.558 V 664.68 c -87.85,-106.828 -218.43,-173.328 -375.12,-173.328 -325.28,0 -572.2,261.179 -572.2,612.558 0,349.02 256.42,614.93 579.32,614.93 151.94,0 280.15,-66.48 368,-170.95 v 149.58 h 292.03 V 510.352 h -292.03" /></g></g></svg>