<svg width="13" height="17" viewBox="0 0 13 17" fill="none" xmlns="http://www.w3.org/2000/svg">
<path d="M2.97575 4.03101H0V16.3343H2.97575V4.03101Z" fill="black"/>
<path d="M12.3076 4.73464C12.3076 2.12398 10.2284 0 7.67258 0H0V2.62746H7.30777C8.4644 2.62746 9.42252 3.55656 9.44369 4.69848C9.45427 5.27024 9.24438 5.80988 8.85273 6.21791C8.46091 6.62611 7.9374 6.85104 7.37867 6.85104H4.53193C4.43086 6.85104 4.34859 6.935 4.34859 7.03834V9.37352C4.34859 9.41325 4.36058 9.45118 4.38317 9.48316L9.21312 16.3343H12.7487L7.90756 9.46443C10.3456 9.33929 12.3076 7.24485 12.3076 4.73464Z" fill="black"/>
</svg>
