<svg viewBox="0 0 20 16" fill="none" xmlns="http://www.w3.org/2000/svg" role="presentation" focusable="false">
  <path fill-rule="evenodd" clip-rule="evenodd"
    d="M0 2.81C0 2.366.28 2 .623 2h18.754c.343 0 .623.365.623.81v10.38c0 .445-.28.81-.623.81H.623C.28 14 0 13.635 0 13.19V2.81Z"
    fill="#F0A929" />
  <path fill-rule="evenodd" clip-rule="evenodd" d="M0 4h20v8H0V4Z" fill="#fff" />
  <path fill-rule="evenodd" clip-rule="evenodd"
    d="M16.943 6.227c-.914 0-1.66.754-1.66 1.678 0 .924.746 1.677 1.66 1.677.915 0 1.66-.753 1.66-1.677s-.745-1.678-1.66-1.678ZM3.258 6.227c-.915 0-1.66.754-1.66 1.678 0 .924.745 1.677 1.66 1.677.914 0 1.66-.753 1.66-1.677s-.746-1.678-1.66-1.678Z"
    fill="#E21C2A" />
  <path fill-rule="evenodd" clip-rule="evenodd"
    d="M16.813 4.75c-1.537-.035-2.26.961-3.308 2.19l-.99 1.158 1.567 1.894c.373.583-.34 1.16-.781.628l-1.449-1.746-1.41 1.653c-.45.526-1.155-.062-.773-.638l1.532-1.8-1.004-1.21.646-.808 1.02 1.239.88-1.034c.432-.508.873-1.18 1.444-1.525H0v6.548h3.317c1.537 0 2.235-.928 3.255-2.18l.963-1.182-1.61-1.858c-.386-.573.313-1.167.767-.645L8.18 7.146 9.553 5.46c.438-.537 1.155.035.787.62L8.85 7.916l1.03 1.186-.65.777-1.026-1.17-.856 1.055c-.42.517-.845 1.176-1.408 1.535h14.053V4.751h-3.18ZM5.881 7.906c0 1.46-1.178 2.65-2.623 2.65-1.445 0-2.623-1.19-2.623-2.65s1.178-2.65 2.623-2.65c1.445 0 2.623 1.19 2.623 2.65Zm11.063 2.65c-1.445 0-2.624-1.19-2.624-2.65s1.179-2.65 2.623-2.65c1.445 0 2.624 1.19 2.624 2.65s-1.178 2.65-2.623 2.65Z"
    fill="#E21C2A" />
</svg>